<?xml version="1.0" standalone="no"?>
<svg viewBox="0 0 200 200" xmlns="http://www.w3.org/2000/svg">
  <defs>
    <linearGradient id="grad1" x1="0%" y1="0%" x2="100%" y2="100%">
      <stop offset="0%" style="stop-color: #FD7A00; stop-opacity: 1" />
      <stop offset="100%" style="stop-color: #E73810; stop-opacity: 1" />
    </linearGradient>
  </defs>
  <path fill="url(#grad1)" d="M35.2,-60C45.8,-54.8,54.6,-45.7,61.2,-35.1C67.8,-24.4,72.1,-12.2,72,0C71.9,12.1,67.5,24.3,57.2,28.4C46.8,32.6,30.6,28.7,20.1,29.3C9.6,30,4.8,35.1,-5.9,45.4C-16.7,55.7,-33.3,71.1,-42.3,69.6C-51.3,68.1,-52.6,49.6,-51.5,35.2C-50.4,20.7,-47,10.4,-50.7,-2.1C-54.4,-14.6,-65.3,-29.3,-60.7,-33.9C-56.1,-38.6,-36.1,-33.2,-23.4,-37.2C-10.7,-41.3,-5.4,-54.7,3.5,-60.7C12.3,-66.7,24.6,-65.3,35.2,-60Z" transform="translate(100 100) rotate(25)" />
</svg>

